<!--?xml version="1.0" encoding="utf-8"?-->
<!-- Generator: Adobe Illustrator 22.0.1, SVG Export Plug-In . SVG Version: 6.00 Build 0)  -->
<svg version="1.1" id="Layer_1" xmlns="http://www.w3.org/2000/svg" xmlns:xlink="http://www.w3.org/1999/xlink" x="0px" y="0px" viewBox="0 0 300 300" style="" xml:space="preserve">
<style type="text/css">
	.st0{fill:#7ED2F6;}
	.st1{fill:none;stroke:#7ED2F6;stroke-width:6;stroke-miterlimit:10;}
</style>
<path class="st0 NXjAxpND_0" d="M261.3,138.3c-0.1-0.5-0.3-0.8-0.6-1c-0.3-0.2-0.6,0.1-1.1,0.8c-1,1.3-2,2.9-3.2,4.6c-1.2,1.7-2.4,3.5-3.7,5.3
	c-1.3,1.8-2.6,3.6-3.9,5.3c-1.3,1.7-2.6,3.3-3.7,4.6c-1.2,1.4-2.2,2.5-3.2,3.3c-1,0.8-1.7,1.2-2.4,1.2c-0.7,0-0.9-0.6-0.6-1.9
	c0.4-1.3,1-3,1.8-4.9c0.7-1.9,1.5-3.9,2.3-6c0.8-2.1,1.6-4.2,2.4-6.4c0.8-2.1,1.5-4.1,2.2-5.9c0.6-1.8,1.2-3.4,1.6-4.7
	c0.4-1.3,0.7-2.2,0.7-2.7c0.1-0.8-0.4-1.8-1.3-2.7c-0.9-1-1.9-1.8-3-2.5c-1.1-0.7-2.2-1-3.2-1.1c-1-0.1-1.5,0.4-1.6,1.4
	c-0.1,1.5-0.7,3.5-1.6,6c-1,2.6-2.1,5.3-3.4,8.4c-1.5,2.5-3.1,5.1-5,7.8c-1.9,2.7-3.8,5.1-5.7,7.2c-1.9,2.1-3.8,3.9-5.6,5.3
	c-1.8,1.4-3.2,2.1-4.4,2.1c-0.4,0-0.5-0.7-0.1-2.1c0.4-1.4,1-3.1,1.8-5.2c0.8-2.1,1.8-4.4,2.9-6.9c1.1-2.5,2.1-4.9,3.1-7.2
	c1-2.3,1.8-4.3,2.5-6.1c0.7-1.7,1.1-2.9,1.1-3.5c0.1-0.8-0.4-1.8-1.3-2.7c-0.9-1-1.9-1.8-3-2.5c-1.1-0.7-2.2-1-3.2-1.1
	c-1-0.1-1.6,0.4-1.7,1.4c-0.1,1.1-0.5,2.5-1.1,4.3c-0.6,1.7-1.3,3.6-2.2,5.5c-0.9,2-1.8,4-2.7,6.1c-1,2.1-1.9,4.1-2.7,6.1
	c-0.9,2-1.6,3.7-2.2,5.3c-0.6,1.6-0.9,2.9-1.1,3.9c0,0,0,0.1,0,0.1c-1.1,1.2-2.1,2.2-3,3c-1,0.8-1.7,1.2-2.3,1.2
	c-0.6,0-0.8-0.6-0.7-1.7c0.5-1.6,1.2-3.5,2-5.9c0.8-2.3,1.7-4.9,2.7-7.6c1-2.7,2-5.6,3-8.6c1.1-3,2.1-5.9,3.1-8.8
	c1-2.9,2-5.7,2.9-8.4c1-2.7,1.8-5.1,2.5-7.2c0.7-2.1,1.3-3.9,1.7-5.3c0.4-1.4,0.7-2.3,0.7-2.7c0.1-0.6-0.2-1.2-0.7-1.9
	c-0.5-0.7-1.2-1.4-2.1-2.1c-0.9-0.7-1.8-1.3-2.8-1.9c-1-0.6-2-1-2.9-1.3c-0.9-0.3-1.7-0.4-2.3-0.3c-0.6,0.1-1,0.5-1,1.2
	c-0.3,3.5-0.9,7.2-1.9,11.2c-1,4-2.1,7.9-3.4,12c-1.3,4-2.7,7.9-4.1,11.8c-0.5,1.4-1.1,2.8-1.6,4.2c-0.1-0.1-0.2-0.3-0.3-0.4
	c-0.4-0.5-1-0.9-1.6-1.3c-0.6-0.3-1.5-0.5-2.5-0.5c-1.6,0-3.1,0.1-4.3,0.4c-1.3,0.3-2.5,0.5-3.6,0.8c-1.2,0.3-2.3,0.6-3.5,0.8
	c-1.2,0.3-2.6,0.4-4.1,0.4c-1.5,0-2.8-0.1-3.7-0.4c-1-0.3-1.7-0.5-2.3-0.6c-0.5-0.2-0.9-0.2-1.1-0.1c-0.2,0.1-0.3,0.4-0.3,1.1
	c0,0.2,0.1,0.7,0.3,1.4c0.2,0.7,0.5,1.4,1,2.1c0.5,0.7,1.2,1.4,2.1,2c0.9,0.6,2.1,0.9,3.5,0.9c1.8,0,3.5-0.2,5-0.5
	c1.5-0.3,3.3-0.6,5.2-0.8c-0.8,1.7-2,3.6-3.4,5.7c-1.4,2.1-3,4.1-4.7,6c-1.7,1.9-3.5,3.5-5.5,4.8c-1.9,1.3-3.8,1.9-5.7,1.9
	c-2.9,0-5.1-0.9-6.5-2.6c-1.4-1.7-2.3-4-2.6-6.8c-0.3-2.8-0.1-6,0.7-9.6c0.7-3.6,1.8-7.3,3.2-11.1c1.4-3.8,3.1-7.5,5.1-11.1
	c2-3.6,4-6.8,6.2-9.6c2.2-2.8,4.4-5.1,6.6-6.8c2.2-1.7,4.3-2.6,6.3-2.6c0.7,0,1,0.3,1.1,1c0,0.7-0.1,1.6-0.5,2.7
	c-0.4,1.1-0.9,2.4-1.5,3.9c-0.6,1.5-1.3,3-1.9,4.5c-0.6,1.5-1.1,3.1-1.6,4.6c-0.4,1.5-0.7,2.9-0.7,4.2c0,1.9,0.3,3.4,1.1,4.5
	c0.7,1.2,1.5,2.1,2.3,2.6c0.8,0.6,1.6,0.8,2.3,0.8c0.7,0,1.1-0.3,1.1-0.8c0-0.7,0.1-1.8,0.4-3.2c0.3-1.4,0.6-2.9,0.9-4.5
	c0.4-1.7,0.8-3.4,1.2-5.1c0.4-1.8,0.9-3.4,1.2-5c0.4-1.6,0.7-3,0.9-4.2c0.3-1.2,0.4-2.1,0.4-2.6c0-3.5-0.7-6.2-2-7.9
	c-1.3-1.7-3.5-2.6-6.5-2.6c-3.2,0-6.5,1-10,3.1c-3.5,2.1-6.9,4.8-10.1,8.3c-3.3,3.4-6.2,7.3-9,11.7c-2.7,4.4-5,8.8-6.7,13.4
	c-1.7,4.5-2.9,9-3.3,13.4c-0.1,1.1-0.2,2.1-0.2,3.1c-0.5,0.6-1,1.2-1.5,1.9c-1.4,1.8-2.9,3.6-4.4,5.3c-1.5,1.8-3,3.5-4.4,5.2
	c-1.5,1.7-2.8,3.2-4,4.5c1.7-4.2,3.2-8.3,4.7-12.2c1.4-3.9,2.7-7.5,3.7-10.6c1-3.1,1.8-5.7,2.4-7.8c0.6-2,0.9-3.3,1-3.7
	c0.1-0.8-0.4-1.8-1.3-2.8c-0.9-1-1.9-1.9-3.1-2.5c-1.2-0.7-2.2-1-3.2-1.1c-1-0.1-1.5,0.4-1.6,1.4c-0.1,0.7-0.3,1.8-0.8,3.5
	c-0.4,1.7-1.1,3.7-1.9,6.2c-1.1,2.7-2.7,5.6-4.8,8.8c-2.1,3.1-4.2,6.1-6.5,8.8c-2.3,2.7-4.5,5-6.6,6.8c-2.1,1.8-3.9,2.7-5.2,2.7
	c-0.5,0-0.5-0.7-0.1-2.1c0.4-1.4,1-3.1,1.8-5.3c0.8-2.1,1.8-4.5,2.8-7c1.1-2.5,2.1-4.9,3.1-7.2c1-2.3,1.8-4.3,2.5-6.1
	c0.7-1.8,1.1-2.9,1.1-3.5c0.1-0.8-0.4-1.8-1.3-2.7c-0.9-1-1.9-1.8-3-2.5c-1.1-0.7-2.2-1-3.2-1.1c-1-0.1-1.5,0.4-1.6,1.4
	c-0.1,1.1-0.5,2.5-1.1,4.3c-0.6,1.7-1.3,3.6-2.1,5.6c-0.8,2-1.8,4.1-2.7,6.2c-1,2.1-1.9,4.2-2.7,6.2c-0.8,2-1.6,3.8-2.2,5.4
	c-0.6,1.6-1,2.9-1,4c0,0.2,0,0.3,0,0.5c-0.1,0.1-0.1,0.1-0.2,0.2c-1.2,1.4-2.2,2.5-3.2,3.4c-1,0.9-1.7,1.3-2.4,1.3
	c-0.7,0-0.8-0.6-0.5-1.9c0.4-1.3,1-3,1.8-4.9c0.7-1.9,1.5-3.9,2.3-6c0.8-2.1,1.6-4.2,2.4-6.3c0.8-2.1,1.5-4.1,2.2-5.9
	c0.6-1.8,1.2-3.4,1.6-4.7c0.4-1.3,0.7-2.2,0.7-2.7c0.1-0.7-0.2-1.4-0.7-2.1c-0.5-0.7-1.2-1.4-2-2c-0.8-0.6-1.6-1.2-2.5-1.6
	c-0.9-0.4-1.7-0.7-2.4-0.7H93c-0.2,0-0.3,0-0.3,0.1c-0.4,0.1-0.7,0.3-0.8,0.6c-0.7,0.6-1.5,1.5-2.6,2.7c-1,1.2-2.2,2.6-3.4,4.2
	c-1.2,1.6-2.5,3.3-3.8,5.1c-1.3,1.8-2.6,3.6-3.8,5.3c-1.2,1.7-2.4,3.4-3.5,4.9c-1.1,1.5-1.9,2.8-2.6,3.8c0.7-1.9,1.5-3.8,2.3-5.9
	c0.8-2.1,1.6-4.1,2.3-6c0.7-1.9,1.3-3.6,1.8-5c0.5-1.5,0.7-2.5,0.8-3.1c0.1-0.8-0.4-1.8-1.3-2.7c-0.9-1-2-1.8-3.1-2.5
	c-1.1-0.7-2.2-1-3.2-1.1c-1-0.1-1.5,0.4-1.6,1.4v0.1c-0.6,0.8-1.4,1.8-2.3,3c-0.9,1.2-1.9,2.6-3,4.1c-1.1,1.5-2.2,3.1-3.3,4.7
	c-1.1,1.7-2.2,3.3-3.3,4.8c-1.1,1.6-2.1,3-2.9,4.4c-0.9,1.4-1.7,2.5-2.3,3.5c0.8-2.1,1.6-4.2,2.4-6.3c0.8-2.1,1.6-4.1,2.2-5.9
	c0.7-1.8,1.2-3.4,1.7-4.7c0.4-1.3,0.7-2.2,0.8-2.7c0.1-0.8-0.4-1.8-1.3-2.8c-0.9-1-2-1.9-3.1-2.5c-1.1-0.7-2.2-1-3.2-1.1
	c-1-0.1-1.5,0.4-1.6,1.4c-0.1,1.1-0.5,2.6-1.1,4.4c-0.6,1.8-1.4,3.7-2.3,5.9c-0.9,2.1-1.9,4.3-2.9,6.6c-1,2.3-2,4.5-2.9,6.5
	c-0.9,2.1-1.7,4-2.3,5.7c-0.6,1.7-1,3.1-1,4.1c-0.1,1.5,0.3,2.8,1.1,3.9c0.8,1.1,1.8,2,2.9,2.7c1.1,0.7,2.2,1.1,3.3,1.3
	c1.1,0.2,1.8,0.2,2.1-0.2c0.3-0.3,0.4-0.5,0.4-0.8c0-0.3,0-0.6-0.1-1.1c0.8-1.5,2-3.5,3.5-5.9c1.5-2.4,3.2-4.9,4.9-7.5
	c1.8-2.6,3.5-5.2,5.3-7.8c1.7-2.6,3.3-4.8,4.5-6.6c-0.7,1.6-1.3,3.3-2,4.9c-0.7,1.6-1.3,3.2-1.9,4.7c-0.6,1.5-1.1,2.9-1.5,4.1
	c-0.4,1.3-0.6,2.3-0.7,3.2c-0.2,1.5,0.1,2.8,0.9,3.9c0.8,1.1,1.7,2,2.7,2.7c1,0.7,2.1,1.1,3.1,1.3c1,0.2,1.7,0.2,2-0.1
	c0.2-0.2,0.3-0.5,0.4-0.7c0-0.3,0-0.5,0-0.8c0.6-0.9,1.4-2.1,2.7-3.7c1.2-1.6,2.6-3.4,4.2-5.4c1.6-2,3.3-4.1,5.2-6.4
	c1.9-2.3,3.8-4.7,5.7-7.1c-0.9,2.1-1.8,4.3-2.8,6.5c-1,2.2-1.8,4.3-2.7,6.3c-0.8,2-1.5,3.8-2.1,5.4c-0.6,1.6-0.9,2.9-0.9,3.9
	c-0.1,1.4,0.2,2.6,1,3.7c0.8,1.1,1.7,1.9,2.7,2.6c1,0.7,2.1,1.2,3.2,1.4c1.1,0.3,1.8,0.3,2.3,0.2c1.3-0.2,2.7-0.9,4.3-2.1
	c1.5-1.1,3-2.5,4.5-4.1c0.6,1.1,1.4,2.1,2.2,2.9c0.9,0.8,1.9,1.4,2.9,1.9c1,0.4,1.9,0.7,2.5,0.7c1.7,0,3.4-0.5,5.1-1.6
	c1.7-1,3.4-2.3,5.1-3.9c1.6-1.6,3.2-3.3,4.6-5.1c1.4-1.9,2.7-3.6,3.8-5.2c-1.7,4.5-3.5,9.1-5.4,13.9c-1.9,4.7-3.9,9.2-5.9,13.4
	c-2.6,2-5.1,3.8-7.5,5.6c-2.4,1.7-4.4,3.4-6.2,4.9c-1.8,1.5-3.2,2.9-4.3,4.3c-1.1,1.3-1.7,2.5-1.7,3.6c-0.1,0.8-0.1,1.7,0.1,2.7
	c0.2,1,0.6,2,1.2,2.9c0.6,0.9,1.5,1.6,2.6,2.2c1.1,0.6,2.5,0.9,4.3,0.9c2.1,0,4.2-0.9,6.4-2.8c2.2-1.9,4.4-4.3,6.6-7.4
	c2.2-3.1,4.3-6.6,6.4-10.7c2.1-4,4.1-8.2,6-12.5c0.1-0.1,0.2-0.2,0.3-0.3c0.1-0.1,0.2-0.1,0.3-0.3c1.2-1,2.6-2.3,4.3-4.2
	c1.7-1.8,3.4-3.8,5.3-5.9c1.8-2.1,3.7-4.3,5.5-6.6c0.8-1,1.5-1.9,2.3-2.8c0.2,1.3,0.6,2.6,1.1,3.9c1.3,3.4,3.7,6.2,7,8.3
	c3.3,2.1,8,3.1,13.9,3.1c2.1,0,4.1-0.4,6-1.3c1.9-0.9,3.7-2,5.4-3.4c1.7-1.4,3.2-3,4.6-4.8c1.4-1.8,2.6-3.6,3.7-5.3
	c1-1.8,1.9-3.5,2.5-5.1c0.6-1.6,1-3,1.2-4.2c0.6,0,1.1,0.1,1.4,0.3c0.3,0.2,0.6,0.5,0.8,0.7c0.2,0.2,0.4,0.4,0.7,0.6
	c0.1,0.1,0.3,0.2,0.5,0.2c-1.1,2.9-2.1,5.5-2.9,7.7c-0.8,2.3-1.3,4-1.3,5c-0.2,1.7,0,3.1,0.5,4.3c0.5,1.2,1.2,2.1,1.9,2.8
	c0.8,0.7,1.6,1.3,2.4,1.6c0.9,0.3,1.6,0.5,2.1,0.5c1.8,0,3.6-0.5,5.4-1.5c1.8-1,3.6-2.3,5.3-3.9c0,0,0-0.1,0.1-0.1
	c0.6,1.2,1.4,2.1,2.3,2.9c0.9,0.8,1.9,1.4,2.9,1.9c1,0.4,1.9,0.6,2.6,0.6c1.3,0,2.6-0.3,4-1c1.3-0.6,2.7-1.5,4-2.6
	c1.3-1.1,2.6-2.3,3.8-3.6c1.2-1.3,2.4-2.7,3.5-4.1c-0.3,0.8-0.5,1.5-0.7,2.1c-0.2,0.6-0.3,1.2-0.3,1.6c-0.1,1.4,0.2,2.6,0.9,3.7
	c0.7,1.1,1.6,2,2.7,2.7c1.1,0.7,2.1,1.2,3.2,1.5c1,0.3,1.8,0.3,2.3,0.2c1.3-0.2,2.7-0.9,4.3-2.1c1.5-1.2,3.1-2.5,4.7-4.2
	c1.6-1.6,3.1-3.4,4.7-5.4c1.6-2,3-3.9,4.3-5.7c1.3-1.9,2.5-3.6,3.5-5.1c1-1.6,1.8-2.8,2.4-3.6c0.2-0.2,0.3-0.6,0.3-1.2
	S261.4,138.8,261.3,138.3z M102.1,195.1c-1.9,2.4-3.6,3.7-5.1,3.7c-0.2,0-0.3-0.1-0.5-0.3c-0.2-0.2-0.3-0.7-0.2-1.5
	c0.1-1.3,1.3-2.9,3.5-4.8c2.2-1.9,5.1-4.1,8.4-6.7C106.1,189.4,104.1,192.6,102.1,195.1z"></path>
<g>
	<g>
		<path class="st1 NXjAxpND_1" d="M159.9,291.3l107.6-62.1c6.1-3.5,9.9-10.1,9.9-17.2V87.9c0-7.1-3.8-13.6-9.9-17.2L159.9,8.7
			c-6.1-3.5-13.7-3.5-19.8,0L32.5,70.7c-6.1,3.5-9.9,10.1-9.9,17.2v124.2c0,7.1,3.8,13.6,9.9,17.2l107.6,62.1
			C146.2,294.9,153.8,294.9,159.9,291.3z"></path>
	</g>
</g>
<style>.NXjAxpND_0{stroke-dasharray:1618 1620;stroke-dashoffset:1619;animation:NXjAxpND_draw_0 3600ms ease-in-out 0ms infinite,NXjAxpND_fade 3600ms linear 0ms infinite;}.NXjAxpND_1{stroke-dasharray:870 872;stroke-dashoffset:871;animation:NXjAxpND_draw_1 3600ms ease-in-out 0ms infinite,NXjAxpND_fade 3600ms linear 0ms infinite;}@keyframes NXjAxpND_draw{100%{stroke-dashoffset:0;}}@keyframes NXjAxpND_fade{0%{stroke-opacity:1;}77.77777777777777%{stroke-opacity:1;}100%{stroke-opacity:0;}}@keyframes NXjAxpND_draw_0{22.22222222222222%{stroke-dashoffset: 1619}50%{ stroke-dashoffset: 0;}100%{ stroke-dashoffset: 0;}}@keyframes NXjAxpND_draw_1{22.22222222222222%{stroke-dashoffset: 871}50%{ stroke-dashoffset: 0;}100%{ stroke-dashoffset: 0;}}</style></svg>
